/* XPM */
static char *wall[] = {
/* columns rows colors chars-per-pixel */
"48 48 3 1 ",
"  c #6C3428",
". c #BA704F",
"X c #DFA878",
/* pixels */
"...XXXXXXXXXXXXXXXXXXXXXXXXXXXXXXXXXXXXXXXXXX   ",
"...XXXXXXXXXXXXXXXXXXXXXXXXXXXXXXXXXXXXXXXXXX   ",
"...XXXXXXXXXXXXXXXXXXXXXXXXXXXXXXXXXXXXXXXXXX   ",
"XXX...XXXXXXXXXXXXXXXXXXXXXXXXXXXXXXXXXXXX      ",
"XXX...XXXXXXXXXXXXXXXXXXXXXXXXXXXXXXXXXXXX      ",
"XXX...XXXXXXXXXXXXXXXXXXXXXXXXXXXXXXXXXXXX      ",
"XXXXXX...XXXXXXXXXXXXXXXXXXXXXXXXXXXXXX         ",
"XXXXXX...XXXXXXXXXXXXXXXXXXXXXXXXXXXXXX         ",
"XXXXXX...XXXXXXXXXXXXXXXXXXXXXXXXXXXXXX         ",
"XXXXXXXXX...XXXXXXXXXXXXXXXXXXXXXXXX            ",
"XXXXXXXXX...XXXXXXXXXXXXXXXXXXXXXXXX            ",
"XXXXXXXXX...XXXXXXXXXXXXXXXXXXXXXXXX            ",
"XXXXXXXXXXXX...XXXXXXXXXXXXXXXXXX               ",
"XXXXXXXXXXXX...XXXXXXXXXXXXXXXXXX               ",
"XXXXXXXXXXXX...XXXXXXXXXXXXXXXXXX               ",
"XXXXXXXXXXXXXXX..................               ",
"XXXXXXXXXXXXXXX..................               ",
"XXXXXXXXXXXXXXX..................               ",
"XXXXXXXXXXXXXXX..................               ",
"XXXXXXXXXXXXXXX..................               ",
"XXXXXXXXXXXXXXX..................               ",
"XXXXXXXXXXXXXXX..................               ",
"XXXXXXXXXXXXXXX..................               ",
"XXXXXXXXXXXXXXX..................               ",
"XXXXXXXXXXXXXXX..................               ",
"XXXXXXXXXXXXXXX..................               ",
"XXXXXXXXXXXXXXX..................               ",
"XXXXXXXXXXXXXXX..................               ",
"XXXXXXXXXXXXXXX..................               ",
"XXXXXXXXXXXXXXX..................               ",
"XXXXXXXXXXXXXXX..................               ",
"XXXXXXXXXXXXXXX..................               ",
"XXXXXXXXXXXXXXX..................               ",
"XXXXXXXXXXXXXXX                  ...            ",
"XXXXXXXXXXXXXXX                  ...            ",
"XXXXXXXXXXXXXXX                  ...            ",
"XXXXXXXXXXXX                        ...         ",
"XXXXXXXXXXXX                        ...         ",
"XXXXXXXXXXXX                        ...         ",
"XXXXXXXXX                              ...      ",
"XXXXXXXXX                              ...      ",
"XXXXXXXXX                              ...      ",
"XXXXXX                                    ...   ",
"XXXXXX                                    ...   ",
"XXXXXX                                    ...   ",
"XXX                                          ...",
"XXX                                          ...",
"XXX                                          ..."
};
